<?xml version="1.0" encoding="utf-8"?>
<!-- Generator: Adobe Illustrator 27.0.0, SVG Export Plug-In . SVG Version: 6.00 Build 0)  -->
<svg version="1.1" id="Layer_1" xmlns="http://www.w3.org/2000/svg" xmlns:xlink="http://www.w3.org/1999/xlink" x="0px" y="0px"
	 viewBox="0 0 32 32" style="enable-background:new 0 0 32 32;" xml:space="preserve">
<style type="text/css">
	.st0{opacity:0.4;fill:#393939;enable-background:new    ;}
	.st1{fill-rule:evenodd;clip-rule:evenodd;fill:#E6AC5C;}
</style>
<path class="st0" d="M16,29.3c-1,0-2-0.4-2.8-1.2l-1-1c-0.4-0.4-0.9-0.6-1.4-0.6H9.4c-2.2,0-4-1.8-4-4v-1.4c0-0.5-0.2-1-0.6-1.4
	l-1-1c-1.6-1.6-1.6-4.1,0-5.7l1-1c0.4-0.4,0.6-0.9,0.6-1.4V9.4c0-2.2,1.8-4,4-4h1.4c0.5,0,1-0.2,1.4-0.6l1-1c1.6-1.6,4.1-1.6,5.7,0
	l1,1c0.4,0.4,0.9,0.6,1.4,0.6h1.4c2.2,0,4,1.8,4,4v1.4c0,0.5,0.2,1,0.6,1.4l1,1c0.8,0.8,1.2,1.8,1.2,2.8c0,1.1-0.4,2.1-1.2,2.8
	c0,0,0,0,0,0l-0.9,0.9c-0.4,0.4-0.6,0.9-0.6,1.4v1.4c0,2.2-1.8,4-4,4h-1.4c-0.5,0-1,0.2-1.4,0.6l-1,1C18.1,28.9,17,29.3,16,29.3"/>
<path class="st1" d="M13.4,13.4c-0.2,0.2-0.5,0.3-0.8,0.3c-0.3,0-0.6-0.1-0.8-0.3c-0.2-0.2-0.3-0.5-0.3-0.8c0-0.3,0.1-0.6,0.3-0.8
	c0.1-0.1,0.3-0.2,0.4-0.3c0.4-0.2,0.9-0.1,1.3,0.3c0.1,0.1,0.2,0.2,0.3,0.4c0.1,0.1,0.1,0.3,0.1,0.5C13.7,12.9,13.6,13.2,13.4,13.4z
	 M20.3,11.7c-0.5-0.5-1.2-0.5-1.6,0l-6.9,6.9c-0.5,0.5-0.5,1.2,0,1.7c0.2,0.2,0.5,0.3,0.8,0.3c0.3,0,0.6-0.1,0.8-0.3l6.9-6.9
	C20.7,12.9,20.7,12.2,20.3,11.7z M19.9,18.4c-0.4-0.2-0.9-0.1-1.3,0.3c-0.1,0.1-0.2,0.2-0.2,0.4c-0.1,0.2-0.1,0.3-0.1,0.5
	c0,0.1,0,0.3,0.1,0.5c0.1,0.1,0.1,0.3,0.3,0.4c0.2,0.2,0.5,0.3,0.8,0.3c0.3,0,0.6-0.1,0.8-0.3c0.2-0.2,0.3-0.5,0.3-0.8
	c0-0.3-0.1-0.6-0.3-0.8C20.1,18.5,20,18.4,19.9,18.4z"/>
</svg>
