<?xml version="1.0" encoding="utf-8"?>
<!-- Generator: Adobe Illustrator 27.0.0, SVG Export Plug-In . SVG Version: 6.00 Build 0)  -->
<svg version="1.1" id="Layer_1" xmlns="http://www.w3.org/2000/svg" xmlns:xlink="http://www.w3.org/1999/xlink" x="0px" y="0px"
	 viewBox="0 0 266 73" style="enable-background:new 0 0 266 73;" xml:space="preserve">
<style type="text/css">
	.st0{fill:#FFFFFF;}
	.st1{fill:#E6AC5C;}
</style>
<path class="st0" d="M61.6,61.6c5-5,8.5-11.5,9.9-18.5s0.7-14.2-2.1-20.8C66.7,15.7,62,10,56.1,6.1c-5.9-4-12.9-6.1-20-6.1
	C28.9,0,22,2.1,16,6.1c-5.9,4-10.6,9.6-13.3,16.2C0,28.9-0.7,36.1,0.7,43.1c1.4,7,4.8,13.4,9.9,18.5l12.8-12.8
	c-2.5-2.5-4.2-5.7-4.9-9.2c-0.7-3.5-0.3-7.1,1-10.4c1.4-3.3,3.7-6.1,6.6-8.1c3-2,6.5-3,10-3c3.6,0,7.1,1.1,10,3c3,2,5.3,4.8,6.6,8.1
	c1.4,3.3,1.7,6.9,1,10.4c-0.7,3.5-2.4,6.7-4.9,9.2L61.6,61.6z"/>
<path class="st1" d="M61.6,61.6c3.3-3.3,6-7.3,7.8-11.7c1.8-4.4,2.7-9.1,2.7-13.8c0-4.7-0.9-9.4-2.7-13.8c-1.8-4.4-4.5-8.4-7.8-11.7
	L48.8,23.3c1.7,1.7,3,3.7,3.9,5.9c0.9,2.2,1.4,4.5,1.4,6.9c0,2.4-0.5,4.7-1.4,6.9c-0.9,2.2-2.2,4.2-3.9,5.9L61.6,61.6z"/>
<circle class="st1" cx="36.1" cy="36.1" r="11.3"/>
<path class="st0" d="M28.1,44c1,1,2.3,1.9,3.7,2.4c1.4,0.6,2.8,0.9,4.3,0.9c1.5,0,2.9-0.3,4.3-0.9S43,45.1,44,44
	c1-1,1.9-2.3,2.4-3.7c0.6-1.4,0.9-2.8,0.9-4.3c0-1.5-0.3-2.9-0.9-4.3c-0.6-1.4-1.4-2.6-2.4-3.7l-8,8L28.1,44z"/>
<g>
	<path class="st1" d="M101.7,49c0,4-3.1,8-8.3,8h-9.9V30.6h7.2c4.6,0,7.6,3.3,7.6,6.8c0,2.8-2,4.7-3,4.7
		C98.4,42.2,101.7,44.9,101.7,49z M87.7,34.7v6.6l3.3,0c2,0,3.6-1.4,3.6-3.3s-1.6-3.3-3.5-3.3H87.7z M97.7,48.7c0-2-1.7-3.8-4.7-3.8
		l-5.3,0V53H93C95.4,53,97.7,51.3,97.7,48.7z"/>
	<path class="st1" d="M120.9,52.9V57H105V30.6h4.1v22.3H120.9z"/>
	<path class="st1" d="M121.9,43.9c0-7.5,6.1-13.7,13.6-13.7c7.5,0,13.7,6.2,13.7,13.7c0,7.5-6.2,13.6-13.7,13.6
		C128,57.4,121.9,51.3,121.9,43.9z M145,43.8c0-5.2-4.3-9.5-9.5-9.5c-5.2,0-9.4,4.3-9.4,9.5c0,5.2,4.2,9.4,9.4,9.4
		C140.7,53.3,145,49,145,43.8z"/>
	<path class="st1" d="M151.7,43.8c0-7.4,6.2-13.7,13.6-13.7c3.4,0,6.6,1.5,9.2,4l-2.4,3.3c-1.9-1.9-4.3-3.1-6.8-3.1
		c-4.8,0-9.3,4.2-9.3,9.5c0,5.3,4.6,9.4,9.4,9.4c2.7,0,5-1.3,6.8-3.1l2.4,3.3c-2.3,2.2-5.2,4-9.1,4
		C157.9,57.4,151.7,51.3,151.7,43.8z"/>
	<path class="st1" d="M191.7,57l-9.8-12.8V57h-4.1V30.6h4.1v12.6l9.1-12.6h4.8l-9.4,13L196.7,57H191.7z"/>
</g>
<g>
	<path class="st0" d="M194,48.4c0-4.8,4-8.9,8.9-8.9c2.2,0,4.3,1,6,2.6l-1.6,2.1c-1.2-1.2-2.8-2-4.5-2c-3.1,0-6.1,2.7-6.1,6.2
		c0,3.5,3,6.1,6.1,6.1c1.8,0,3.3-0.9,4.5-2l1.6,2.2c-1.5,1.5-3.4,2.6-5.9,2.6C198.1,57.3,194,53.3,194,48.4z"/>
	<path class="st0" d="M223.8,39.8V57h-2.7v-7.3h-7.4V57H211V39.8h2.7v7.2h7.4v-7.2H223.8z"/>
	<path class="st0" d="M238,54.4h-8.1l-1.2,2.6h-2.9l8.1-17.5h0.2L242,57h-2.9L238,54.4z M236.9,52.1l-3-6.7l-3,6.7H236.9z"/>
	<path class="st0" d="M244,39.8h2.7V57H244V39.8z"/>
	<path class="st0" d="M263.8,39.8v17.5h-0.1l-11-11.5V57H250V39.6h0.1l11,11.4V39.8H263.8z"/>
</g>
</svg>
