<?xml version="1.0" encoding="utf-8"?>
<!-- Generator: Adobe Illustrator 27.0.0, SVG Export Plug-In . SVG Version: 6.00 Build 0)  -->
<svg version="1.1" id="Layer_1" xmlns="http://www.w3.org/2000/svg" xmlns:xlink="http://www.w3.org/1999/xlink" x="0px" y="0px"
	 viewBox="0 0 266 73" style="enable-background:new 0 0 266 73;" xml:space="preserve">
<style type="text/css">
	.st0{fill:#E6AC5C;}
	.st1{fill:#FFFFFF;}
	.st2{fill:none;}
</style>
<g>
	<path class="st0" d="M101.7,49c0,4-3.1,8-8.3,8h-9.9V30.6h7.2c4.6,0,7.6,3.3,7.6,6.8c0,2.8-2,4.7-3,4.7
		C98.4,42.2,101.7,44.9,101.7,49z M87.7,34.7v6.6H91c2,0,3.6-1.4,3.6-3.3s-1.6-3.3-3.5-3.3H87.7z M97.7,48.7c0-2-1.7-3.8-4.7-3.8
		h-5.3V53H93C95.4,53,97.7,51.3,97.7,48.7z"/>
	<path class="st0" d="M120.9,52.9V57H105V30.6h4.1v22.3H120.9z"/>
	<path class="st0" d="M121.9,43.9c0-7.5,6.1-13.7,13.6-13.7s13.7,6.2,13.7,13.7s-6.2,13.6-13.7,13.6C128,57.4,121.9,51.3,121.9,43.9
		z M145,43.8c0-5.2-4.3-9.5-9.5-9.5s-9.4,4.3-9.4,9.5s4.2,9.4,9.4,9.4C140.7,53.3,145,49,145,43.8z"/>
	<path class="st0" d="M151.7,43.8c0-7.4,6.2-13.7,13.6-13.7c3.4,0,6.6,1.5,9.2,4l-2.4,3.3c-1.9-1.9-4.3-3.1-6.8-3.1
		c-4.8,0-9.3,4.2-9.3,9.5s4.6,9.4,9.4,9.4c2.7,0,5-1.3,6.8-3.1l2.4,3.3c-2.3,2.2-5.2,4-9.1,4C157.9,57.4,151.7,51.3,151.7,43.8z"/>
	<path class="st0" d="M191.7,57l-9.8-12.8V57h-4.1V30.6h4.1v12.6l9.1-12.6h4.8l-9.4,13L196.7,57H191.7z"/>
</g>
<g>
	<path class="st1" d="M194,48.4c0-4.8,4-8.9,8.9-8.9c2.2,0,4.3,1,6,2.6l-1.6,2.1c-1.2-1.2-2.8-2-4.5-2c-3.1,0-6.1,2.7-6.1,6.2
		s3,6.1,6.1,6.1c1.8,0,3.3-0.9,4.5-2l1.6,2.2c-1.5,1.5-3.4,2.6-5.9,2.6C198.1,57.3,194,53.3,194,48.4z"/>
	<path class="st1" d="M223.8,39.8V57h-2.7v-7.3h-7.4V57H211V39.8h2.7V47h7.4v-7.2H223.8z"/>
	<path class="st1" d="M238,54.4h-8.1l-1.2,2.6h-2.9l8.1-17.5h0.2L242,57h-2.9L238,54.4z M236.9,52.1l-3-6.7l-3,6.7H236.9z"/>
	<path class="st1" d="M244,39.8h2.7V57H244V39.8z"/>
	<path class="st1" d="M263.8,39.8v17.5h-0.1l-11-11.5V57H250V39.6h0.1l11,11.4V39.8H263.8z"/>
</g>
<g>
	<path class="st2" d="M36.4,6c-2.3,0-4.5,0.3-6.6,0.7l7.7,7.7c0-0.3,0-0.7,0-1c0-0.1,0-0.2,0-0.3c0-0.2,0.1-0.2,0.2-0.2
		c1.4,0,2.8,0,4.2,0c0.2,0,0.2,0.1,0.2,0.2c0,0.6,0,1.2,0,1.9c0,1.2,0,2.4,0,3.6c0,0.4,0,0.4,0.4,0.4c0.8,0.1,1.6,0.2,2.4,0.3
		c1.3,0.2,2.6,0.6,3.8,1.2c1.9,0.9,3.1,2.5,3.6,4.6c0.3,1.4,0.3,2.8,0.1,4.2c0,0.1,0,0.1,0,0.2l13.8,13.8c0.5-2.1,0.7-4.3,0.7-6.6
		C66.9,19.6,53.3,6,36.4,6z"/>
	<path class="st2" d="M32.9,59.6c0,0.1,0,0.1,0,0.2c0,0.3,0,0.3-0.3,0.3c-1.4,0-2.7,0-4.1,0c-0.3,0-0.3,0-0.3-0.3c0-1.7,0-3.4,0-5.1
		c0-0.5,0-0.5-0.6-0.5c-2.7,0-5.5,0-8.2,0c-0.1,0-0.2,0-0.2,0c-0.3,0-0.3,0-0.3-0.3c0-1.2,0-2.5,0-3.7c0-0.3,0-0.3,0.3-0.3
		c0.8,0,1.6,0,2.4,0c0.5,0,1-0.1,1.4-0.2c0.5-0.1,0.8-0.4,0.9-0.9c0.1-0.4,0.2-0.9,0.2-1.3c0,0,0,0,0-0.1L6.8,29.8
		c-0.5,2.2-0.7,4.5-0.7,6.8c0.1,16.7,13.6,30.2,30.4,30.2c2.3,0,4.5-0.3,6.6-0.7L32.9,55.9C32.9,57.1,32.9,58.3,32.9,59.6z"/>
	<path class="st0" d="M36.4,6c16.9,0,30.5,13.6,30.5,30.5c0,2.3-0.3,4.5-0.7,6.6l4.9,4.9c1.2-3.6,1.9-7.5,1.9-11.6
		C72.9,15.6,56,0.1,36.9,0c-4.2-0.1-8.3,0.6-12,1.9l4.9,4.9C32,6.3,34.2,6,36.4,6z"/>
	<path class="st0" d="M36.5,66.8c-16.7,0-30.3-13.6-30.4-30.2c0-2.3,0.2-4.6,0.7-6.8l-4.9-4.9C0.8,28.2,0.1,31.8,0,35.4
		C-0.5,55.3,15.2,72.8,36.5,73c4.1,0,8-0.7,11.6-1.9l-4.9-4.9C41,66.6,38.8,66.8,36.5,66.8z"/>
	<path class="st0" d="M24.2,47.3c0,0.5-0.1,0.9-0.2,1.3c-0.1,0.5-0.4,0.8-0.9,0.9c-0.5,0.1-1,0.2-1.4,0.2c-0.8,0-1.6,0-2.4,0
		c-0.3,0-0.3,0-0.3,0.3c0,1.2,0,2.5,0,3.7c0,0.3,0,0.3,0.3,0.3c0.1,0,0.2,0,0.2,0c2.7,0,5.5,0,8.2,0c0.6,0,0.6,0,0.6,0.5
		c0,1.7,0,3.4,0,5.1c0,0.3,0,0.3,0.3,0.3c1.4,0,2.7,0,4.1,0c0.3,0,0.3,0,0.3-0.3c0-0.1,0-0.1,0-0.2c0-1.2,0-2.5,0-3.7L24.2,47.3
		C24.2,47.2,24.2,47.3,24.2,47.3z"/>
	<path class="st0" d="M52.4,29.1c0.3-1.4,0.2-2.8-0.1-4.2c-0.5-2.1-1.6-3.6-3.6-4.6c-1.2-0.6-2.5-0.9-3.8-1.2
		c-0.8-0.1-1.6-0.2-2.4-0.3c-0.4,0-0.4,0-0.4-0.4c0-1.2,0-2.4,0-3.6c0-0.6,0-1.2,0-1.9c0-0.2,0-0.2-0.2-0.2c-1.4,0-2.8,0-4.2,0
		c-0.2,0-0.2,0-0.2,0.2c0,0.1,0,0.2,0,0.3c0,0.3,0,0.7,0,1l14.8,14.8C52.4,29.2,52.4,29.1,52.4,29.1z"/>
	<path class="st1" d="M71.1,48l-4.9-4.9c-2.6,11.5-11.7,20.5-23.1,23l4.9,4.9C59,67.4,67.5,58.9,71.1,48z"/>
	<path class="st1" d="M29.9,6.8l-4.9-4.9C14.1,5.5,5.5,14.1,1.9,24.9l4.9,4.9C9.4,18.4,18.4,9.3,29.9,6.8z"/>
	<path class="st1" d="M37.2,18.8c-1.3,0-2.6,0-3.9,0c-0.4,0-0.4,0-0.4-0.4c0-0.3,0-0.6,0-0.9c0-1.5,0-2.9,0-4.4c0-0.3,0-0.3-0.3-0.3
		c-1.3,0-2.7,0-4,0c0,0-0.1,0-0.1,0c-0.1,0-0.2,0-0.2,0.2c0,0.1,0,0.2,0,0.2c0,1.7,0,3.4,0,5.1c0,0.5,0.1,0.4-0.4,0.4
		c-2.8,0-5.7,0-8.5,0c-0.3,0-0.3,0-0.3,0.3c0,1.2,0,2.4,0,3.7c0,0.3,0,0.3,0.3,0.3c0.8,0,1.7,0,2.5,0c0.5,0,1,0.1,1.5,0.3
		c0.4,0.1,0.6,0.4,0.7,0.7c0,0.1,0.1,0.3,0.1,0.4c0.1,0.6,0.1,1.2,0.1,1.7c0,6.8,0,13.5,0,20.3c0,0.2,0,0.5,0,0.7l8.7,8.7
		c0-0.5,0-1,0-1.5c0-0.3,0-0.3,0.3-0.3c1.3,0,2.7,0,4,0c0,0,0.1,0,0.1,0c0.2,0,0.2,0.1,0.2,0.2c0,0.1,0,0.2,0,0.2c0,1.7,0,3.4,0,5.2
		c0,0.4,0,0.4,0.4,0.4c1.3,0,2.6,0,3.9,0c0.1,0,0.1,0,0.2,0c0.1,0,0.2-0.1,0.2-0.2c0-0.1,0-0.2,0-0.2c0-1.8,0-3.5,0-5.3
		c0-0.4,0-0.3,0.3-0.4c0.9-0.1,1.9-0.2,2.8-0.3c1.3-0.2,2.6-0.5,3.9-1c2.3-1,3.9-2.7,4.5-5.1c0.5-1.9,0.5-3.8,0-5.8
		c-0.5-1.8-1.4-3.2-3-4.3c-1-0.7-2-1.2-3.1-1.5c-0.7-0.2-1.3-0.4-2-0.5c0.1-0.1,0.2-0.1,0.2-0.1c1.3-0.4,2.5-0.9,3.6-1.7
		c1.5-1.1,2.4-2.5,2.8-4.2L37.5,14.4c0,1.3,0,2.7,0,4C37.5,18.8,37.5,18.8,37.2,18.8z M44.6,46.2c-0.5,1.5-1.5,2.4-2.9,2.9
		c-1.1,0.4-2.1,0.5-3.2,0.6c-1.8,0.1-3.6,0.1-5.4,0.1c-0.2,0-0.2,0-0.2-0.3c0-1.9,0-3.8,0-5.7c0-1.9,0-3.7,0-5.6
		c0-0.4,0-0.4,0.4-0.4c1.2,0,2.3,0,3.5,0c1.5,0,2.9,0.1,4.3,0.5c0.6,0.1,1.1,0.3,1.7,0.6c1,0.6,1.7,1.5,2,2.6
		C45.2,43.1,45.1,44.7,44.6,46.2z M41.4,24c1.1,0.6,1.6,1.5,1.9,2.6c0.2,1.1,0.2,2.3-0.1,3.4c-0.3,1.4-1.1,2.3-2.5,2.8
		c-0.9,0.4-1.9,0.5-2.9,0.6c-1.6,0.2-3.2,0.1-4.8,0.1c-0.2,0-0.2,0-0.2-0.3c0-1.7,0-3.3,0-5c0-1.6,0-3.2,0-4.8c0-0.1,0-0.2,0-0.2
		c0-0.2,0-0.2,0.2-0.2c0.3,0,0.7,0,1,0c0.9,0,1.8,0,2.7,0c1.2,0,2.4,0.2,3.5,0.5C40.7,23.7,41.1,23.8,41.4,24z"/>
</g>
</svg>
