<?xml version="1.0" encoding="utf-8"?>
<!-- Generator: Adobe Illustrator 27.0.0, SVG Export Plug-In . SVG Version: 6.00 Build 0)  -->
<svg version="1.1" id="Layer_1" xmlns="http://www.w3.org/2000/svg" xmlns:xlink="http://www.w3.org/1999/xlink" x="0px" y="0px"
	 viewBox="0 0 33 32" style="enable-background:new 0 0 33 32;" xml:space="preserve">
<style type="text/css">
	.st0{fill:#E6AC5C;}
</style>
<path class="st0" d="M31.5,0.9c-0.8-0.8-2-1.1-3.1-0.8L2.7,7.6c-1.2,0.3-2,1.3-2.2,2.4C0.2,11.3,1,12.8,2,13.4l8.1,4.9
	c0.8,0.5,1.9,0.4,2.6-0.3l9.2-9.3c0.5-0.5,1.2-0.5,1.7,0s0.5,1.2,0,1.7l-9.2,9.3c-0.7,0.7-0.8,1.8-0.3,2.6l4.9,8.1
	c0.6,1,1.6,1.5,2.7,1.5c0.1,0,0.3,0,0.4,0c1.2-0.2,2.2-1,2.6-2.2L32.3,4C32.6,2.9,32.3,1.8,31.5,0.9"/>
</svg>
