<?xml version="1.0" encoding="utf-8"?>
<!-- Generator: Adobe Illustrator 27.0.0, SVG Export Plug-In . SVG Version: 6.00 Build 0)  -->
<svg version="1.1" id="Layer_1" xmlns="http://www.w3.org/2000/svg" xmlns:xlink="http://www.w3.org/1999/xlink" x="0px" y="0px"
	 viewBox="0 0 33 32" style="enable-background:new 0 0 33 32;" xml:space="preserve">
<style type="text/css">
	.st0{fill:#E6AC5C;}
</style>
<path class="st0" d="M25.5,19.7c-0.4,0.4-0.6,1-0.5,1.6l1.4,7.9c0.1,0.7-0.2,1.3-0.7,1.7c-0.5,0.4-1.3,0.4-1.9,0.1l-7.1-3.7
	c-0.2-0.1-0.5-0.2-0.8-0.2h-0.4c-0.2,0-0.3,0.1-0.4,0.1L8,30.9c-0.4,0.2-0.7,0.2-1.1,0.2c-0.9-0.2-1.6-1.1-1.4-2l1.4-7.9
	C7,20.6,6.8,20,6.4,19.6L0.5,14c-0.5-0.5-0.7-1.2-0.4-1.8c0.2-0.6,0.8-1.1,1.4-1.2l8-1.2c0.6-0.1,1.1-0.4,1.4-1l3.5-7.2
	c0.1-0.2,0.2-0.3,0.3-0.4l0.1-0.1C14.9,1.1,15,1,15.1,1l0.2-0.1l0.3-0.1h0.7c0.6,0.1,1.1,0.4,1.4,1L21.3,9c0.3,0.5,0.8,0.9,1.3,1
	l8,1.2c0.7,0.1,1.2,0.6,1.5,1.2c0.2,0.6,0,1.3-0.5,1.8L25.5,19.7z"/>
</svg>
